<mxfile host="app.diagrams.net" agent="Mozilla/5.0 (Windows NT 10.0; Win64; x64) AppleWebKit/537.36 (KHTML, like Gecko) Chrome/127.0.0.0 Safari/537.36 Edg/127.0.0.0" version="24.7.6">
  <diagram name="Page-1" id="IuNPOhGfFnayNq_4wUZ6">
    <mxGraphModel dx="786" dy="457" grid="1" gridSize="10" guides="1" tooltips="1" connect="1" arrows="1" fold="1" page="1" pageScale="1" pageWidth="850" pageHeight="1100" math="0" shadow="0">
      <root>
        <mxCell id="0" />
        <mxCell id="1" parent="0" />
        <mxCell id="2rpEFETnDWqnx7fMgMxQ-1" value="&lt;font style=&quot;font-size: 16px;&quot;&gt;Ride suggestion ranking&lt;/font&gt;" style="text;html=1;align=center;verticalAlign=middle;whiteSpace=wrap;rounded=0;" vertex="1" parent="1">
          <mxGeometry x="340" y="120" width="120" height="50" as="geometry" />
        </mxCell>
        <mxCell id="2rpEFETnDWqnx7fMgMxQ-4" value="" style="edgeStyle=orthogonalEdgeStyle;rounded=0;orthogonalLoop=1;jettySize=auto;html=1;" edge="1" parent="1" source="2rpEFETnDWqnx7fMgMxQ-2" target="2rpEFETnDWqnx7fMgMxQ-3">
          <mxGeometry relative="1" as="geometry" />
        </mxCell>
        <mxCell id="2rpEFETnDWqnx7fMgMxQ-2" value="Start" style="ellipse;whiteSpace=wrap;html=1;" vertex="1" parent="1">
          <mxGeometry x="340" y="190" width="120" height="80" as="geometry" />
        </mxCell>
        <mxCell id="2rpEFETnDWqnx7fMgMxQ-9" value="" style="edgeStyle=orthogonalEdgeStyle;rounded=0;orthogonalLoop=1;jettySize=auto;html=1;" edge="1" parent="1" source="2rpEFETnDWqnx7fMgMxQ-3" target="2rpEFETnDWqnx7fMgMxQ-8">
          <mxGeometry relative="1" as="geometry" />
        </mxCell>
        <mxCell id="2rpEFETnDWqnx7fMgMxQ-3" value="destDif = Time between destinations" style="rounded=0;whiteSpace=wrap;html=1;" vertex="1" parent="1">
          <mxGeometry x="340" y="300" width="120" height="60" as="geometry" />
        </mxCell>
        <mxCell id="2rpEFETnDWqnx7fMgMxQ-12" value="" style="edgeStyle=orthogonalEdgeStyle;rounded=0;orthogonalLoop=1;jettySize=auto;html=1;" edge="1" parent="1" source="2rpEFETnDWqnx7fMgMxQ-5" target="2rpEFETnDWqnx7fMgMxQ-11">
          <mxGeometry relative="1" as="geometry" />
        </mxCell>
        <mxCell id="2rpEFETnDWqnx7fMgMxQ-5" value="timeDif = Time arrival difference" style="rounded=0;whiteSpace=wrap;html=1;" vertex="1" parent="1">
          <mxGeometry x="340" y="460" width="120" height="60" as="geometry" />
        </mxCell>
        <mxCell id="2rpEFETnDWqnx7fMgMxQ-10" value="" style="edgeStyle=orthogonalEdgeStyle;rounded=0;orthogonalLoop=1;jettySize=auto;html=1;" edge="1" parent="1" source="2rpEFETnDWqnx7fMgMxQ-8" target="2rpEFETnDWqnx7fMgMxQ-5">
          <mxGeometry relative="1" as="geometry" />
        </mxCell>
        <mxCell id="2rpEFETnDWqnx7fMgMxQ-8" value="originDif = Time between origins" style="rounded=0;whiteSpace=wrap;html=1;" vertex="1" parent="1">
          <mxGeometry x="340" y="380" width="120" height="60" as="geometry" />
        </mxCell>
        <mxCell id="2rpEFETnDWqnx7fMgMxQ-13" style="edgeStyle=orthogonalEdgeStyle;rounded=0;orthogonalLoop=1;jettySize=auto;html=1;" edge="1" parent="1" source="2rpEFETnDWqnx7fMgMxQ-11">
          <mxGeometry relative="1" as="geometry">
            <mxPoint x="220" y="615" as="targetPoint" />
          </mxGeometry>
        </mxCell>
        <mxCell id="2rpEFETnDWqnx7fMgMxQ-16" value="" style="edgeStyle=orthogonalEdgeStyle;rounded=0;orthogonalLoop=1;jettySize=auto;html=1;" edge="1" parent="1" source="2rpEFETnDWqnx7fMgMxQ-11" target="2rpEFETnDWqnx7fMgMxQ-15">
          <mxGeometry relative="1" as="geometry" />
        </mxCell>
        <mxCell id="2rpEFETnDWqnx7fMgMxQ-11" value="if (destDif &amp;gt; 10min) or (originDiff &amp;gt;15 min) or (timeDiff &amp;gt; 30)" style="rhombus;whiteSpace=wrap;html=1;rounded=0;" vertex="1" parent="1">
          <mxGeometry x="338.5" y="550" width="122.5" height="130" as="geometry" />
        </mxCell>
        <mxCell id="2rpEFETnDWqnx7fMgMxQ-14" value="Return empty" style="shape=parallelogram;perimeter=parallelogramPerimeter;whiteSpace=wrap;html=1;fixedSize=1;" vertex="1" parent="1">
          <mxGeometry x="111" y="585" width="120" height="60" as="geometry" />
        </mxCell>
        <mxCell id="2rpEFETnDWqnx7fMgMxQ-18" value="" style="edgeStyle=orthogonalEdgeStyle;rounded=0;orthogonalLoop=1;jettySize=auto;html=1;" edge="1" parent="1" source="2rpEFETnDWqnx7fMgMxQ-15" target="2rpEFETnDWqnx7fMgMxQ-17">
          <mxGeometry relative="1" as="geometry" />
        </mxCell>
        <mxCell id="2rpEFETnDWqnx7fMgMxQ-15" value="&lt;div&gt;sortRides = []&lt;/div&gt;for ride, idx in rides:&lt;br&gt;&amp;nbsp;sortRides[idx].time = destDif + originDif + timeDif&lt;div&gt;sortRides[idx].ride = ride&amp;nbsp;&lt;/div&gt;" style="whiteSpace=wrap;html=1;rounded=0;" vertex="1" parent="1">
          <mxGeometry x="242.13" y="710" width="315.25" height="70" as="geometry" />
        </mxCell>
        <mxCell id="2rpEFETnDWqnx7fMgMxQ-20" value="" style="edgeStyle=orthogonalEdgeStyle;rounded=0;orthogonalLoop=1;jettySize=auto;html=1;" edge="1" parent="1" source="2rpEFETnDWqnx7fMgMxQ-17" target="2rpEFETnDWqnx7fMgMxQ-19">
          <mxGeometry relative="1" as="geometry" />
        </mxCell>
        <mxCell id="2rpEFETnDWqnx7fMgMxQ-17" value="sortRides.selectionSortIncreasing()" style="whiteSpace=wrap;html=1;rounded=0;" vertex="1" parent="1">
          <mxGeometry x="299.5" y="814" width="200.5" height="60" as="geometry" />
        </mxCell>
        <mxCell id="2rpEFETnDWqnx7fMgMxQ-19" value="return jsonify(sortRides)" style="whiteSpace=wrap;html=1;rounded=0;" vertex="1" parent="1">
          <mxGeometry x="339.75" y="904" width="120" height="60" as="geometry" />
        </mxCell>
      </root>
    </mxGraphModel>
  </diagram>
</mxfile>
